<svg width="114" height="114" viewBox="0 0 114 114" fill="none" xmlns="http://www.w3.org/2000/svg">
<path fill-rule="evenodd" clip-rule="evenodd" d="M33.8047 33.8047C37.2805 30.3289 42.4817 29 49.186 29H64.814C71.5182 29 76.7195 30.3289 80.1953 33.8047C83.6711 37.2805 85 42.4817 85 49.186V64.814C85 71.5182 83.6711 76.7195 80.1953 80.1953C76.7195 83.6711 71.5182 85 64.814 85H49.186C42.4817 85 37.2805 83.6711 33.8047 80.1953C30.3289 76.7195 29 71.5182 29 64.814V49.186C29 42.4817 30.3289 37.2805 33.8047 33.8047ZM36.5674 36.5674C34.1827 38.952 32.907 42.8671 32.907 49.186V64.814C32.907 71.1329 34.1827 75.048 36.5674 77.4326C38.952 79.8173 42.8671 81.093 49.186 81.093H64.814C71.1329 81.093 75.048 79.8173 77.4326 77.4326C79.8173 75.048 81.093 71.1329 81.093 64.814V49.186C81.093 42.8671 79.8173 38.952 77.4326 36.5674C75.048 34.1827 71.1329 32.907 64.814 32.907H49.186C42.8671 32.907 38.952 34.1827 36.5674 36.5674Z" fill="#ACABAB"/>
<path fill-rule="evenodd" clip-rule="evenodd" d="M49.186 43.3256C47.3879 43.3256 45.9302 44.7833 45.9302 46.5814C45.9302 48.3795 47.3879 49.8372 49.186 49.8372C50.9842 49.8372 52.4419 48.3795 52.4419 46.5814C52.4419 44.7833 50.9842 43.3256 49.186 43.3256ZM42.0233 46.5814C42.0233 42.6255 45.2301 39.4186 49.186 39.4186C53.1419 39.4186 56.3488 42.6255 56.3488 46.5814C56.3488 50.5373 53.1419 53.7442 49.186 53.7442C45.2301 53.7442 42.0233 50.5373 42.0233 46.5814Z" fill="#ACABAB"/>
<path fill-rule="evenodd" clip-rule="evenodd" d="M77.5278 59.7843C76.2283 58.6681 74.028 58.6681 72.7285 59.7843L61.8931 69.0829C59.1294 71.4563 54.7658 71.4567 52.0023 69.0829L51.9856 69.0685L51.1353 68.3213C49.9675 67.3245 47.9718 67.2019 46.6282 68.1029L33.7873 76.7243C32.8916 77.3257 31.6779 77.0871 31.0766 76.1914C30.4752 75.2957 30.7138 74.082 31.6095 73.4806L44.4504 64.8592C47.2194 63.0016 51.157 63.1889 53.6886 65.364L53.7051 65.3783L54.5554 66.1255C55.8559 67.2355 58.0503 67.2334 59.3474 66.1192L70.1827 56.8206C72.9465 54.4473 77.31 54.4469 80.0735 56.8206L84.3191 60.4671C85.1376 61.17 85.2312 62.4034 84.5282 63.2218C83.8253 64.0402 82.5919 64.1339 81.7735 63.4309L77.5278 59.7843Z" fill="#ACABAB"/>
</svg>
